<svg xmlns="http://www.w3.org/2000/svg" width="100" height="100" viewBox="0 0 100 100">
  <!-- Background Circle -->
  <circle cx="50" cy="50" r="50" fill="#02C076" />
  
  <!-- Face -->
  <circle cx="50" cy="45" r="25" fill="#FFFFFF" />
  
  <!-- Eyes -->
  <circle cx="40" cy="40" r="3" fill="#1E2026" />
  <circle cx="60" cy="40" r="3" fill="#1E2026" />
  
  <!-- Smile -->
  <path d="M35,50 Q50,65 65,50" fill="none" stroke="#1E2026" stroke-width="2" />
  
  <!-- Hair -->
  <path d="M25,35 Q30,20 50,20 Q70,20 75,35 Q60,30 50,30 Q40,30 25,35 Z" fill="#1E2026" />
  <path d="M25,35 Q30,45 50,45 Q70,45 75,35" fill="none" stroke="#1E2026" stroke-width="2" />
  
  <!-- Earrings -->
  <circle cx="25" cy="45" r="3" fill="#F0B90B" />
  <circle cx="75" cy="45" r="3" fill="#F0B90B" />
  
  <!-- Shoulders -->
  <path d="M25,85 L25,75 Q50,85 75,75 L75,85 Z" fill="#FFFFFF" />
</svg>