<svg xmlns="http://www.w3.org/2000/svg" width="100" height="100" viewBox="0 0 100 100">
  <!-- Background Circle -->
  <circle cx="50" cy="50" r="50" fill="#0F8CFF" />
  
  <!-- Face -->
  <circle cx="50" cy="45" r="25" fill="#FFFFFF" />
  
  <!-- Eyes -->
  <circle cx="40" cy="40" r="3" fill="#1E2026" />
  <circle cx="60" cy="40" r="3" fill="#1E2026" />
  
  <!-- Smile -->
  <path d="M40,55 Q50,60 60,55" fill="none" stroke="#1E2026" stroke-width="2" />
  
  <!-- Hair -->
  <path d="M30,25 Q50,15 70,25 Q75,35 70,45 Q50,35 30,45 Q25,35 30,25 Z" fill="#1E2026" />
  
  <!-- Glasses -->
  <rect x="35" y="38" width="10" height="6" rx="2" fill="none" stroke="#1E2026" stroke-width="1" />
  <rect x="55" y="38" width="10" height="6" rx="2" fill="none" stroke="#1E2026" stroke-width="1" />
  <line x1="45" y1="41" x2="55" y2="41" stroke="#1E2026" stroke-width="1" />
  
  <!-- Shoulders -->
  <path d="M25,85 L25,75 Q50,85 75,75 L75,85 Z" fill="#FFFFFF" />
</svg>